<?xml version="1.0" encoding="UTF-8"?>
<svg id="Layer_1" xmlns="http://www.w3.org/2000/svg" xmlns:xlink="http://www.w3.org/1999/xlink" version="1.1" viewBox="0 0 32 32">
  <!-- Generator: Adobe Illustrator 30.5.1, SVG Export Plug-In . SVG Version: 2.1.4 Build 3)  -->
  <defs>
    <style>
      .st0 {
        fill: url(#linear-gradient);
      }

      .st1 {
        fill: #fff48e;
      }

      .st2 {
        fill: none;
        stroke: #fecb1b;
      }
    </style>
    <linearGradient id="linear-gradient" x1="-218" y1="1227" x2="-218" y2="1195" gradientTransform="translate(234 1227) scale(1 -1)" gradientUnits="userSpaceOnUse">
      <stop offset="0" stop-color="#2d2d2d"/>
      <stop offset="1" stop-color="#1c1c1c"/>
    </linearGradient>
  </defs>
  <rect class="st0" x=".5" y=".5" width="31" height="31" rx="3.5" ry="3.5"/>
  <rect class="st2" x=".5" y=".5" width="31" height="31" rx="3.5" ry="3.5"/>
  <path class="st1" d="M21.88,18.79h.72c.31,0,.51.31.36.57-.07.13-.21.2-.36.2h-13.21c-.15,0-.29-.08-.36-.2-.15-.26.05-.57.36-.57h.72l-4.12-6.17,4.97,1.95c.31.12.4.47.23.72.51.09.89.5.89,1,0,.22-.08.43-.21.59,0-.93-1.3-1.08-1.3-.17,0,1.19,1.1,2.13,2.39,2,.96-.1,1.74-.81,1.88-1.7.14-.93-.39-1.76-1.21-2.12.21-.17.49-.27.79-.27.24,0,.46.07.65.18-.15-.39-.3-.94-.3-1.47,0-1.02,1.21-2.34,1.21-2.34,0,0,1.21,1.32,1.21,2.34,0,.53-.15,1.08-.3,1.47.19-.11.41-.18.65-.18.3,0,.58.1.79.27-.82.36-1.36,1.19-1.21,2.12.14.89.93,1.6,1.88,1.7,1.3.13,2.39-.81,2.39-2,0-.91-1.3-.76-1.3.17-.13-.17-.21-.37-.21-.59,0-.5.38-.91.89-1-.17-.25-.08-.6.23-.72l4.97-1.95-4.12,6.17ZM9.37,14.87c-.3,0-.55.23-.55.51s.25.51.55.51.55-.23.55-.51-.25-.51-.55-.51ZM16,12.64s-.42.37-.42.83.42.83.42.83c0,0,.42-.37.42-.83s-.42-.83-.42-.83ZM22.63,14.87c-.3,0-.55.23-.55.51s.25.51.55.51.55-.23.55-.51-.25-.51-.55-.51ZM9.82,20.06h12.36s.09.04.09.08v.77s-.04.08-.09.08h-12.36s-.09-.04-.09-.08v-.77s.04-.08.09-.08Z"/>
</svg>